<svg xmlns="http://www.w3.org/2000/svg" xmlns:xlink="http://www.w3.org/1999/xlink" width="146" height="19" viewBox="0 0 146 19">
    <defs>
        <path id="a" d="M90.134 126.48c0-2.294-1.48-3.911-3.753-3.911s-3.754 1.617-3.754 3.911c0 2.295 1.48 3.912 3.754 3.912 2.272 0 3.753-1.617 3.753-3.912zm-7.481 4.315H82.6v1.806H80V114h2.6v8.131h.053c.77-1.328 2.123-2.205 4.139-2.205 3.236 0 5.969 2.444 5.969 6.537 0 4.092-2.733 6.537-5.97 6.537-2.015 0-3.369-.877-4.138-2.205zm11.984-4.315c0-4.081 2.733-6.52 5.97-6.52 2.016 0 3.369.875 4.138 2.2h.054v-1.802h2.6v12.245h-2.6V130.8h-.054c-.769 1.325-2.122 2.2-4.138 2.2-3.237 0-5.97-2.438-5.97-6.52zm10.51 0c0-2.294-1.48-3.911-3.754-3.911-2.273 0-3.753 1.617-3.753 3.911 0 2.295 1.48 3.912 3.753 3.912s3.753-1.617 3.753-3.912zm16.889-1.394v7.541h-2.596v-7.09c0-2.097-1.06-2.974-2.809-2.974-1.907 0-3.258 1.142-3.258 4.196v5.868h-2.597V120.36h2.597v1.859h.053c.795-1.407 2.12-2.257 4-2.257 2.623 0 4.61 1.407 4.61 5.125zm2.627 1.377c0-4.093 2.733-6.537 5.97-6.537 2.016 0 3.369.877 4.139 2.205h.053V114h2.6v18.601h-2.6v-1.806h-.053c-.77 1.328-2.123 2.205-4.14 2.205-3.236 0-5.969-2.445-5.969-6.537zm10.51.017c0-2.294-1.481-3.911-3.754-3.911-2.273 0-3.753 1.617-3.753 3.911 0 2.295 1.48 3.912 3.753 3.912s3.753-1.617 3.753-3.912zm4.503 5.221l1.167-2.305c1.14.662 2.44 1.166 3.898 1.166 1.246 0 1.91-.371 1.91-1.14 0-.503-.266-.874-1.3-1.378l-2.227-1.087c-1.857-.874-2.573-2.12-2.573-3.524 0-2.253 1.671-3.472 4.349-3.472 1.406 0 2.943.37 4.243.954l-1.06 2.253c-.93-.398-2.07-.796-3.263-.796-1.14 0-1.511.372-1.511.928 0 .583.345.954 1.405 1.458l2.28 1.086c1.592.742 2.44 1.802 2.44 3.446 0 2.491-1.909 3.71-4.773 3.71-1.75 0-3.58-.477-4.985-1.299zm12.386.926h2.627v-12.294h-2.627v12.294zm17.264-7.541v7.541h-2.596v-7.09c0-2.097-1.06-2.974-2.808-2.974-1.907 0-3.26 1.142-3.26 4.196v5.868h-2.595V120.36h2.596v1.859h.053c.795-1.407 2.12-2.257 4.001-2.257 2.623 0 4.61 1.407 4.61 5.125zm6.562-2.508v6.4c0 .873.364 1.27 1.249 1.27h.624v2.38h-1.17c-2.109 0-3.254-1.138-3.254-3.148v-6.902h-2.134v-2.195h2.134v-4.893h2.55v4.893h2.447v2.195h-2.446zm17.084 3.902c0 3.764-2.884 6.52-6.756 6.52-3.872 0-6.756-2.756-6.756-6.52 0-3.763 2.884-6.52 6.756-6.52 3.872 0 6.756 2.757 6.756 6.52zm-10.51 0c0 2.373 1.614 3.912 3.942 3.912 2.328 0 3.94-1.539 3.94-3.912s-1.612-3.911-3.94-3.911-3.941 1.538-3.941 3.911zm30.026-6.147l-4.09 12.294h-2.376l-2.904-8.807-2.929 8.807h-2.375l-4.092-12.294h2.851l2.454 8.862 2.825-8.862h2.507l2.824 8.862 2.455-8.862h2.85zM226 125.086v7.541h-2.596v-7.09c0-2.097-1.06-2.974-2.809-2.974-1.907 0-3.259 1.142-3.259 4.196v5.868h-2.596V120.36h2.596v1.859h.054c.795-1.407 2.12-2.257 4-2.257 2.623 0 4.61 1.407 4.61 5.125zm-70.56-9.223a1.87 1.87 0 0 1-1.877 1.862 1.87 1.87 0 0 1-1.877-1.862 1.87 1.87 0 0 1 1.877-1.863 1.87 1.87 0 0 1 1.877 1.863z"/>
    </defs>
    <use fill="#2D2D2D" fill-rule="evenodd" transform="translate(-80 -114)" xlink:href="#a"/>
</svg>
